<?xml version="1.0" standalone="no"?>
<!DOCTYPE svg PUBLIC "-//W3C//DTD SVG 20010904//EN"
 "http://www.w3.org/TR/2001/REC-SVG-20010904/DTD/svg10.dtd">
<svg version="1.0" xmlns="http://www.w3.org/2000/svg"
 width="640.000000pt" height="640.000000pt" viewBox="0 0 640.000000 640.000000"
 preserveAspectRatio="xMidYMid meet">
<metadata>
Created by potrace 1.14, written by Peter Selinger 2001-2017
</metadata>
<g transform="translate(0.000000,640.000000) scale(0.100000,-0.100000)"
fill="#000000" stroke="none">
<path d="M3180 6385 c-7 -8 -16 -15 -20 -15 -5 0 -89 -46 -187 -103 -249 -145
-1054 -608 -1078 -621 -11 -6 -27 -16 -35 -22 -8 -7 -40 -25 -70 -41 -30 -17
-244 -139 -475 -273 -231 -133 -436 -251 -455 -262 -19 -10 -123 -70 -230
-132 l-195 -113 0 -1602 0 -1603 118 -69 c65 -38 137 -80 160 -93 82 -46 825
-474 980 -565 87 -50 179 -104 205 -118 26 -14 111 -64 190 -109 79 -46 145
-84 146 -84 2 0 33 -17 67 -38 35 -22 84 -50 109 -64 25 -14 117 -67 205 -118
88 -51 180 -104 205 -118 25 -13 70 -39 100 -57 30 -18 106 -62 169 -99 l113
-66 52 29 c28 15 155 88 281 161 127 73 250 144 275 158 25 14 74 42 109 64
34 21 65 38 67 38 1 0 67 38 146 84 79 45 485 280 903 521 418 241 802 462
853 492 l92 54 0 1599 0 1599 -62 37 c-35 20 -76 44 -93 54 -327 187 -512 294
-520 300 -5 4 -31 19 -57 34 -84 46 -129 72 -318 181 -102 60 -221 128 -265
153 -44 24 -84 48 -90 52 -5 4 -131 77 -280 162 -148 85 -450 259 -670 386
-220 127 -407 234 -416 237 -9 3 -22 -1 -29 -10z"/>
</g>
</svg>
